<svg xmlns="http://www.w3.org/2000/svg" xmlns:xlink="http://www.w3.org/1999/xlink" xmlns:lucid="lucid" width="1100.62" height="1200.57"><g transform="translate(0 0)" lucid:page-tab-id="0_0"><path d="M0 0h1100.62v1200.57H0z" fill="#fff"/><path d="M653.47 984.42a13.33 13.33 0 0 1 13.72 0l91.8 55.1a4.8 4.8 0 0 1 0 8.23l-91.8 55.1a13.33 13.33 0 0 1-13.73 0l-91.82-55.1a4.8 4.8 0 0 1 0-8.23z" stroke="#333" fill-opacity="0"/><path d="M812.54 980.68a8 8 0 0 1 8-8h191.62a8 8 0 0 1 8 8v125.9a8 8 0 0 1-8 8H820.54a8 8 0 0 1-8-8z" stroke="#333" fill="#fff"/><use xlink:href="#a" transform="matrix(1,0,0,1,817.5441802065308,977.6810562253811) translate(82.525 68.025)"/><path d="M80.46 140a8 8 0 0 1 8-8H280.1a8 8 0 0 1 8 8v61.9a8 8 0 0 1-8 8H88.45a8 8 0 0 1-8-8z" stroke="#333" fill="#fff"/><path d="M177.8 259.75a10.67 10.67 0 0 1 12.8 0l71.22 53.42a6 6 0 0 1 0 9.6l-71.22 53.4a10.67 10.67 0 0 1-12.8 0l-71.22-53.4a6 6 0 0 1 0-9.6z" stroke="#333" fill-opacity="0"/><path d="M84.28 142.95a8 8 0 0 1 8-8h184a8 8 0 0 1 8 8v56a8 8 0 0 1-8 8h-184a8 8 0 0 1-8-8z" fill="#fff"/><path d="M84.28 142.95a8 8 0 0 1 8-8h184a8 8 0 0 1 8 8v56a8 8 0 0 1-8 8h-184a8 8 0 0 1-8-8zM84.28 174.95h200" stroke="#333" fill="none"/><use xlink:href="#b" transform="matrix(1,0,0,1,94.27479656582341,134.95420055903372) translate(37.574999999999996 23.6)"/><use xlink:href="#c" transform="matrix(1,0,0,1,89.27479656582341,177.45420055903372) translate(80.5 17.1)"/><path d="M168.3 197.23l5.32.03m5.32.03l10.63.05m5.32.03l5.3.04M168.32 197.23h-.52M200.2 197.4l.5.02M185.28 210.9v45.72M183.28 210.9v45.72" stroke="#333" fill="none"/><path d="M185.78 210.92h-1v-.5h1zM183.78 210.92h-1v-.5h1zM185.78 257.24l-.14-.03-.86-.04v-.55h1zM183.78 257.15l-1 .06v-.6h1z" stroke="#333" stroke-width=".05" fill="#333"/><path d="M177.73 262.77a10.67 10.67 0 0 1 12.8 0l67.2 50.4a6 6 0 0 1 0 9.6l-67.2 50.4a10.67 10.67 0 0 1-12.8 0l-67.2-50.4a6 6 0 0 1 0-9.6z" stroke="#333" fill="#fff"/><use xlink:href="#d" transform="matrix(1,0,0,1,109.13194479465034,262.968351156605) translate(24.029999999999994 59.0875)"/><path d="M84.13 465.37a8 8 0 0 1 8-8h184a8 8 0 0 1 8 8v88a8 8 0 0 1-8 8h-184a8 8 0 0 1-8-8z" fill="#fff"/><path d="M84.13 465.37a8 8 0 0 1 8-8h184a8 8 0 0 1 8 8v88a8 8 0 0 1-8 8h-184a8 8 0 0 1-8-8zM84.13 497.37h200" stroke="#333" fill="none"/><use xlink:href="#e" transform="matrix(1,0,0,1,94.13194479465034,457.3673816874543) translate(71.05 23.6)"/><use xlink:href="#f" transform="matrix(1,0,0,1,89.13194479465034,499.8673816874543) translate(88.025 17.1)"/><use xlink:href="#g" transform="matrix(1,0,0,1,89.13194479465034,531.8673816874543) translate(72.525 17.1)"/><path d="M184.2 379.32v38.5a.04.04 0 0 1-.03.02.04.04 0 0 0-.04.04v22.6" stroke="#333" fill="none"/><path d="M184.2 378.82l.5-.03v.53h-1v-.54z" stroke="#333" stroke-width=".05" fill="#333"/><path d="M184.13 455.25l-4.63-14.27h9.27z" stroke="#333" fill="#333"/><path d="M560.33 433.37a8 8 0 0 1 8-8h184a8 8 0 0 1 8 8v152a8 8 0 0 1-8 8h-184a8 8 0 0 1-8-8z" fill="#fff"/><path d="M560.33 433.37a8 8 0 0 1 8-8h184a8 8 0 0 1 8 8v152a8 8 0 0 1-8 8h-184a8 8 0 0 1-8-8zM560.33 465.37h200" stroke="#333" fill="none"/><use xlink:href="#h" transform="matrix(1,0,0,1,570.3273549879815,425.36738197597106) translate(47.099999999999994 23.6)"/><use xlink:href="#i" transform="matrix(1,0,0,1,565.3273549879815,467.86738197597106) translate(88.025 17.1)"/><use xlink:href="#g" transform="matrix(1,0,0,1,565.3273549879815,499.86738197597106) translate(72.525 17.1)"/><use xlink:href="#j" transform="matrix(1,0,0,1,565.3273549879815,531.867381975971) translate(73.57499999999999 17.1)"/><use xlink:href="#k" transform="matrix(1,0,0,1,565.3273549879815,563.867381975971) translate(57.525 17.1)"/><path d="M560.33 810.74a8 8 0 0 1 8-8h184a8 8 0 0 1 8 8v120a8 8 0 0 1-8 8h-184a8 8 0 0 1-8-8z" fill="#fff"/><path d="M560.33 810.74a8 8 0 0 1 8-8h184a8 8 0 0 1 8 8v120a8 8 0 0 1-8 8h-184a8 8 0 0 1-8-8zM560.33 842.74h200" stroke="#333" fill="none"/><use xlink:href="#l" transform="matrix(1,0,0,1,570.3273549879815,802.7347639519421) translate(61.05 23.6)"/><use xlink:href="#i" transform="matrix(1,0,0,1,565.3273549879815,845.2347639519421) translate(88.025 17.1)"/><use xlink:href="#g" transform="matrix(1,0,0,1,565.3273549879815,877.2347639519421) translate(72.525 17.1)"/><use xlink:href="#m" transform="matrix(1,0,0,1,565.3273549879815,909.2347639519421) translate(68.55 17.1)"/><path d="M417.88 458.2a10.67 10.67 0 0 1 12.8 0l67.2 50.4a6 6 0 0 1 0 9.6l-67.2 50.4a10.67 10.67 0 0 1-12.8 0l-67.2-50.4a6 6 0 0 1 0-9.6z" stroke="#333" fill="#fff"/><use xlink:href="#n" transform="matrix(1,0,0,1,349.2747965658234,458.3873798701816) translate(8.579999999999993 58.41)"/><path d="M291.5 513.4h55.77" stroke="#333" fill="none"/><path d="M285.6 513.4l12.92-7.65v15.27z" stroke="#333" fill="#333"/><path d="M347.77 513.4l.05.5h-.56v-1h.56z" stroke="#333" stroke-width=".05" fill="#333"/><path d="M501.28 513.4h58.05" stroke="#333" fill="none"/><path d="M501.3 513.9h-.57l.05-.5-.05-.5h.56zM559.83 513.9h-.5v-1h.5z" stroke="#333" stroke-width=".05" fill="#333"/><path d="M417.88 815.23a10.67 10.67 0 0 1 12.8 0l67.2 50.4a6 6 0 0 1 0 9.6l-67.2 50.4a10.67 10.67 0 0 1-12.8 0l-67.2-50.4a6 6 0 0 1 0-9.6z" stroke="#333" fill="#fff"/><use xlink:href="#o" transform="matrix(1,0,0,1,349.2747965658234,815.4331793111478) translate(38.07999999999999 59.0875)"/><path d="M184.13 568.74v289.7a12 12 0 0 0 12 12h151.14" stroke="#333" fill="none"/><path d="M184.13 562.85l7.64 12.9H176.5z" stroke="#333" fill="#333"/><path d="M347.77 870.43l.05.5h-.56v-1h.56z" stroke="#333" stroke-width=".05" fill="#333"/><path d="M501.28 869.43h29.87a.15.15 0 0 1 .15.15v.15h28.03M501.28 871.43h28.02v.15a.15.15 0 0 0 .15.15h29.88" stroke="#333" fill="none"/><path d="M501.3 869.93h-.57l-.06-.7-.1-.3h.72zM501.3 871.93h-.72l.1-.3.05-.7h.56zM559.83 870.24h-.5v-1h.5zM559.83 872.24h-.5v-1h.5z" stroke="#333" stroke-width=".05" fill="#333"/><path d="M653.93 265.48a10.67 10.67 0 0 1 12.8 0l67.2 50.4a6 6 0 0 1 0 9.6l-67.2 50.4a10.67 10.67 0 0 1-12.8 0l-67.2-50.4a6 6 0 0 1 0-9.6z" stroke="#333" fill="#fff"/><use xlink:href="#p" transform="matrix(1,0,0,1,585.3273549879815,265.6836909879855) translate(34.05499999999999 59.0875)"/><path d="M653.93 642.85a10.67 10.67 0 0 1 12.8 0l67.2 50.4a6 6 0 0 1 0 9.6l-67.2 50.4a10.67 10.67 0 0 1-12.8 0l-67.2-50.4a6 6 0 0 1 0-9.6z" stroke="#333" fill="#fff"/><use xlink:href="#q" transform="matrix(1,0,0,1,585.3273549879815,643.0510729639566) translate(11.104999999999999 59.0875)"/><path d="M660.33 795.36v-38.98" stroke="#333" fill="none"/><path d="M660.33 801.25l-7.64-12.9h15.26z" stroke="#333" fill="#333"/><path d="M660.33 755.9l.5-.05v.55h-1v-.55z" stroke="#333" stroke-width=".05" fill="#333"/><path d="M660.33 594.37v45.35" stroke="#333" fill="none"/><path d="M660.83 594.38h-1v-.5h1zM660.83 640.25l-.5-.03-.5.03v-.55h1z" stroke="#333" stroke-width=".05" fill="#333"/><path d="M560.46 88a8 8 0 0 1 8-8h184a8 8 0 0 1 8 8v120a8 8 0 0 1-8 8h-184a8 8 0 0 1-8-8z" fill="#fff"/><path d="M560.46 88a8 8 0 0 1 8-8h184a8 8 0 0 1 8 8v120a8 8 0 0 1-8 8h-184a8 8 0 0 1-8-8zM560.46 120h200" stroke="#333" fill="none"/><use xlink:href="#r" transform="matrix(1,0,0,1,570.4590290141397,80) translate(43.05 23.6)"/><use xlink:href="#s" transform="matrix(1,0,0,1,565.4590290141397,122.5) translate(88.025 17.1)"/><use xlink:href="#t" transform="matrix(1,0,0,1,565.4590290141397,154.5) translate(72.525 17.1)"/><use xlink:href="#u" transform="matrix(1,0,0,1,565.4590290141397,186.5) translate(51.05 17.1)"/><path d="M660.33 424.37v-45.35" stroke="#333" fill="none"/><path d="M660.83 424.87h-1v-.5h1zM660.33 378.52l.5-.03v.53h-1v-.54z" stroke="#333" stroke-width=".05" fill="#333"/><path d="M660.46 217v22.6a.07.07 0 0 1-.07.08.07.07 0 0 0-.07.06v22.6" stroke="#333" fill="none"/><path d="M660.96 217h-1v-.5h1zM660.83 262.88l-.5-.03-.5.03v-.54h1z" stroke="#333" stroke-width=".05" fill="#333"/><path d="M816.35 421.4a8 8 0 0 1 8-8h184a8 8 0 0 1 8 8v184a8 8 0 0 1-8 8h-184a8 8 0 0 1-8-8z" fill="#fff"/><path d="M816.35 421.4a8 8 0 0 1 8-8h184a8 8 0 0 1 8 8v184a8 8 0 0 1-8 8h-184a8 8 0 0 1-8-8zM816.35 453.4h200" stroke="#333" fill="none"/><use xlink:href="#v" transform="matrix(1,0,0,1,826.3503516821462,413.3873798701816) translate(62.225 23.6)"/><use xlink:href="#s" transform="matrix(1,0,0,1,821.3503516821462,455.8873798701816) translate(88.025 17.1)"/><use xlink:href="#t" transform="matrix(1,0,0,1,821.3503516821462,487.8873798701816) translate(72.525 17.1)"/><use xlink:href="#w" transform="matrix(1,0,0,1,821.3503516821462,519.8873798701816) translate(69.05 17.1)"/><use xlink:href="#x" transform="matrix(1,0,0,1,821.3503516821462,551.8873798701816) translate(9.550000000000011 17.1)"/><use xlink:href="#y" transform="matrix(1,0,0,1,821.3503516821462,583.8873798701816) translate(67.025 17.1)"/><path d="M909.98 642.85a10.67 10.67 0 0 1 12.8 0l67.2 50.4a6 6 0 0 1 0 9.6l-67.2 50.4a10.67 10.67 0 0 1-12.8 0l-67.2-50.4a6 6 0 0 1 0-9.6z" stroke="#333" fill="#fff"/><use xlink:href="#z" transform="matrix(1,0,0,1,841.3799134101396,643.0510729639566) translate(17.07999999999999 59.0875)"/><path d="M917.35 614.4v11.65l.03.02v13.65M915.35 614.4v13.64h.03v11.68" stroke="#333" fill="none"/><path d="M917.85 614.4h-1v-.5h1zM915.85 614.4h-1v-.5h1zM917.88 640.32h-.07l-.92-.07v-.55h1zM915.88 640.25l-.93.06-.07.02v-.62h1z" stroke="#333" stroke-width=".05" fill="#333"/><path d="M767.7 877.8h136.68a12 12 0 0 0 12-12V756.4" stroke="#333" fill="none"/><path d="M761.8 877.8l12.92-7.63v15.27z" stroke="#333" fill="#333"/><path d="M916.38 755.9l.5-.05v.55h-1v-.55z" stroke="#333" stroke-width=".05" fill="#333"/><path d="M909.98 265.48a10.67 10.67 0 0 1 12.8 0l67.2 50.4a6 6 0 0 1 0 9.6l-67.2 50.4a10.67 10.67 0 0 1-12.8 0l-67.2-50.4a6 6 0 0 1 0-9.6z" stroke="#333" fill="#fff"/><use xlink:href="#A" transform="matrix(1,0,0,1,841.3799134101396,265.6836909879855) translate(7.049999999999997 58.6)"/><path d="M916.35 406v-10.28-.02h.03V379" stroke="#333" fill="none"/><path d="M916.35 411.9l-7.63-12.9H924z" stroke="#333" fill="#333"/><path d="M916.38 378.52l.5-.03v.53h-1v-.54z" stroke="#333" stroke-width=".05" fill="#333"/><path d="M761.46 149.48h142.92a13 13 0 0 1 13 13v99.87" stroke="#333" fill="none"/><path d="M761.46 151.48h142.92a11 11 0 0 1 11 11v99.87" stroke="#333" fill="none"/><path d="M761.47 149.98h-.5v-1h.5zM761.47 151.98h-.5v-1h.5zM917.88 262.95h-.07l-.92-.07v-.54h1zM915.88 262.88l-.93.06h-.07v-.6h1z" stroke="#333" stroke-width=".05" fill="#333"/><path d="M344.27 295.7a8 8 0 0 1 8-8h144a8 8 0 0 1 8 8v49.97a8 8 0 0 1-8 8h-144a8 8 0 0 1-8-8z" stroke="#333" fill="#fff"/><use xlink:href="#B" transform="matrix(1,0,0,1,349.2747965658234,292.69784158555683) translate(53.025 17.9)"/><use xlink:href="#C" transform="matrix(1,0,0,1,349.2747965658234,292.69784158555683) translate(36.025 45.980000000000004)"/><path d="M505.27 320.68h5.2m5.2 0h10.42m5.2 0h10.4m5.2 0h10.4m5.2 0h10.42m5.2 0h5.2" stroke="#333" fill="none"/><path d="M505.3 321.18h-.53v-1h.52zM583.83 320.68l.04.5h-.56v-1h.57z" stroke="#333" stroke-width=".05" fill="#333"/><path d="M653.6 987.36a13.33 13.33 0 0 1 13.72 0l86.28 51.76a4.8 4.8 0 0 1 0 8.24l-86.28 51.76a13.33 13.33 0 0 1-13.72 0l-86.28-51.76a4.8 4.8 0 0 1 0-8.24z" stroke="#333" fill="#fff"/><use xlink:href="#D" transform="matrix(1,0,0,1,565.4590290141397,988.2395318563256) translate(14.080000000000007 58.41)"/><path d="M816.38 983.45a8 8 0 0 1 8-8h184a8 8 0 0 1 8 8v120a8 8 0 0 1-8 8h-184a8 8 0 0 1-8-8z" fill="#fff"/><path d="M816.38 983.45a8 8 0 0 1 8-8h184a8 8 0 0 1 8 8v120a8 8 0 0 1-8 8h-184a8 8 0 0 1-8-8zM816.38 1015.45h200" stroke="#333" fill="none"/><use xlink:href="#E" transform="matrix(1,0,0,1,826.3799134101396,975.4457734002053) translate(47.574999999999996 23.6)"/><use xlink:href="#F" transform="matrix(1,0,0,1,821.3799134101396,1017.9457734002053) translate(73.025 17.1)"/><use xlink:href="#G" transform="matrix(1,0,0,1,821.3799134101396,1049.9457734002053) translate(75.05 17.1)"/><use xlink:href="#H" transform="matrix(1,0,0,1,821.3799134101396,1081.9457734002053) translate(47.55 17.1)"/><path d="M894.67 1037.8h4.8m4.82 0l9.62.02m4.8 0l9.63.02m4.82 0l4.8.02M894.68 1037.8h-.5M937.97 1037.86h.5M811.54 1044.63h-49.2M811.54 1042.63h-49.2" stroke="#333" fill="none"/><path d="M812.04 1045.13h-.5v-1h.5zM812.04 1043.13h-.5v-1h.5zM762.35 1045.13h-.76l.13-.4.06-.6h.55zM762.35 1043.13h-.56l-.07-.58-.14-.42h.75z" stroke="#333" stroke-width=".05" fill="#333"/><path d="M660.33 946.1v35.42" stroke="#333" fill="none"/><path d="M660.33 940.22l7.63 12.9H652.7z" stroke="#333" fill="#333"/><path d="M660.83 982.04l-.5-.02-.5.02v-.54h1z" stroke="#333" stroke-width=".05" fill="#333"/><defs><path fill="#333" d="M127-220V0H93v-220H8v-28h204v28h-85" id="I"/><path fill="#333" d="M100-194c63 0 86 42 84 106H49c0 40 14 67 53 68 26 1 43-12 49-29l28 8c-11 28-37 45-77 45C44 4 14-33 15-96c1-61 26-98 85-98zm52 81c6-60-76-77-97-28-3 7-6 17-6 28h103" id="J"/><path fill="#333" d="M141 0L90-78 38 0H4l68-98-65-92h35l48 74 47-74h35l-64 92 68 98h-35" id="K"/><path fill="#333" d="M59-47c-2 24 18 29 38 22v24C64 9 27 4 27-40v-127H5v-23h24l9-43h21v43h35v23H59v120" id="L"/><g id="a"><use transform="matrix(0.05,0,0,0.05,0,0)" xlink:href="#I"/><use transform="matrix(0.05,0,0,0.05,8.950000000000001,0)" xlink:href="#J"/><use transform="matrix(0.05,0,0,0.05,18.950000000000003,0)" xlink:href="#K"/><use transform="matrix(0.05,0,0,0.05,27.950000000000003,0)" xlink:href="#L"/></g><path fill="#333" d="M140-251c81 0 123 46 123 126C263-46 219 4 140 4 59 4 17-45 17-125s42-126 123-126zm0 227c63 0 89-41 89-101s-29-99-89-99c-61 0-89 39-89 99S79-25 140-24" id="M"/><path fill="#333" d="M33 0v-248h34V0H33" id="N"/><path fill="#333" d="M30-248c118-7 216 8 213 122C240-48 200 0 122 0H30v-248zM63-27c89 8 146-16 146-99s-60-101-146-95v194" id="O"/><path fill="#333" d="M212-179c-10-28-35-45-73-45-59 0-87 40-87 99 0 60 29 101 89 101 43 0 62-24 78-52l27 14C228-24 195 4 139 4 59 4 22-46 18-125c-6-104 99-153 187-111 19 9 31 26 39 46" id="P"/><path fill="#333" d="M185-189c-5-48-123-54-124 2 14 75 158 14 163 119 3 78-121 87-175 55-17-10-28-26-33-46l33-7c5 56 141 63 141-1 0-78-155-14-162-118-5-82 145-84 179-34 5 7 8 16 11 25" id="Q"/><path fill="#333" d="M84 4C-5 8 30-112 23-190h32v120c0 31 7 50 39 49 72-2 45-101 50-169h31l1 190h-30c-1-10 1-25-2-33-11 22-28 36-60 37" id="R"/><path fill="#333" d="M115-194c53 0 69 39 70 98 0 66-23 100-70 100C84 3 66-7 56-30L54 0H23l1-261h32v101c10-23 28-34 59-34zm-8 174c40 0 45-34 45-75 0-40-5-75-45-74-42 0-51 32-51 76 0 43 10 73 51 73" id="S"/><path fill="#333" d="M24-231v-30h32v30H24zM-9 49c24 4 33-6 33-30v-209h32V24c2 40-23 58-65 49V49" id="T"/><path fill="#333" d="M96-169c-40 0-48 33-48 73s9 75 48 75c24 0 41-14 43-38l32 2c-6 37-31 61-74 61-59 0-76-41-82-99-10-93 101-131 147-64 4 7 5 14 7 22l-32 3c-4-21-16-35-41-35" id="U"/><g id="b"><use transform="matrix(0.05,0,0,0.05,0,0)" xlink:href="#M"/><use transform="matrix(0.05,0,0,0.05,14,0)" xlink:href="#N"/><use transform="matrix(0.05,0,0,0.05,19,0)" xlink:href="#O"/><use transform="matrix(0.05,0,0,0.05,31.950000000000003,0)" xlink:href="#P"/><use transform="matrix(0.05,0,0,0.05,44.900000000000006,0)" xlink:href="#Q"/><use transform="matrix(0.05,0,0,0.05,56.900000000000006,0)" xlink:href="#R"/><use transform="matrix(0.05,0,0,0.05,66.9,0)" xlink:href="#S"/><use transform="matrix(0.05,0,0,0.05,76.9,0)" xlink:href="#T"/><use transform="matrix(0.05,0,0,0.05,80.85000000000001,0)" xlink:href="#J"/><use transform="matrix(0.05,0,0,0.05,90.85000000000001,0)" xlink:href="#U"/><use transform="matrix(0.05,0,0,0.05,99.85000000000001,0)" xlink:href="#L"/></g><path fill="#333" d="M135-143c-3-34-86-38-87 0 15 53 115 12 119 90S17 21 10-45l28-5c4 36 97 45 98 0-10-56-113-15-118-90-4-57 82-63 122-42 12 7 21 19 24 35" id="V"/><g id="c"><use transform="matrix(0.05,0,0,0.05,0,0)" xlink:href="#V"/><use transform="matrix(0.05,0,0,0.05,9,0)" xlink:href="#R"/><use transform="matrix(0.05,0,0,0.05,19,0)" xlink:href="#S"/></g><path fill="#333" d="M141-36C126-15 110 5 73 4 37 3 15-17 15-53c-1-64 63-63 125-63 3-35-9-54-41-54-24 1-41 7-42 31l-33-3c5-37 33-52 76-52 45 0 72 20 72 64v82c-1 20 7 32 28 27v20c-31 9-61-2-59-35zM48-53c0 20 12 33 32 33 41-3 63-29 60-74-43 2-92-5-92 41" id="W"/><path fill="#333" d="M106-169C34-169 62-67 57 0H25v-261h32l-1 103c12-21 28-36 61-36 89 0 53 116 60 194h-32v-121c2-32-8-49-39-48" id="X"/><path fill="#333" d="M-5 72V49h209v23H-5" id="Y"/><g id="d"><use transform="matrix(0.05,0,0,0.05,0,0)" xlink:href="#W"/><use transform="matrix(0.05,0,0,0.05,10,0)" xlink:href="#R"/><use transform="matrix(0.05,0,0,0.05,20,0)" xlink:href="#L"/><use transform="matrix(0.05,0,0,0.05,25,0)" xlink:href="#X"/><use transform="matrix(0.05,0,0,0.05,35,0)" xlink:href="#Y"/><use transform="matrix(0.05,0,0,0.05,45,0)" xlink:href="#V"/><use transform="matrix(0.05,0,0,0.05,54,0)" xlink:href="#R"/><use transform="matrix(0.05,0,0,0.05,64,0)" xlink:href="#S"/><use transform="matrix(0.05,0,0,0.05,74,0)" xlink:href="#T"/><use transform="matrix(0.05,0,0,0.05,77.95,0)" xlink:href="#J"/><use transform="matrix(0.05,0,0,0.05,87.95,0)" xlink:href="#U"/><use transform="matrix(0.05,0,0,0.05,96.95,0)" xlink:href="#L"/></g><path fill="#333" d="M232-93c-1 65-40 97-104 97C67 4 28-28 28-90v-158h33c8 89-33 224 67 224 102 0 64-133 71-224h33v155" id="Z"/><path fill="#333" d="M114-163C36-179 61-72 57 0H25l-1-190h30c1 12-1 29 2 39 6-27 23-49 58-41v29" id="aa"/><g id="e"><use transform="matrix(0.05,0,0,0.05,0,0)" xlink:href="#Z"/><use transform="matrix(0.05,0,0,0.05,12.950000000000001,0)" xlink:href="#V"/><use transform="matrix(0.05,0,0,0.05,21.950000000000003,0)" xlink:href="#J"/><use transform="matrix(0.05,0,0,0.05,31.950000000000003,0)" xlink:href="#aa"/></g><path fill="#333" d="M24-231v-30h32v30H24zM24 0v-190h32V0H24" id="ab"/><path fill="#333" d="M85-194c31 0 48 13 60 33l-1-100h32l1 261h-30c-2-10 0-23-3-31C134-8 116 4 85 4 32 4 16-35 15-94c0-66 23-100 70-100zm9 24c-40 0-46 34-46 75 0 40 6 74 45 74 42 0 51-32 51-76 0-42-9-74-50-73" id="ac"/><g id="f"><use transform="matrix(0.05,0,0,0.05,0,0)" xlink:href="#ab"/><use transform="matrix(0.05,0,0,0.05,3.95,0)" xlink:href="#ac"/><path fill="#333" d="M-.9 1.25h15.75v1.32H-.9z"/></g><path fill="#333" d="M117-194c89-4 53 116 60 194h-32v-121c0-31-8-49-39-48C34-167 62-67 57 0H25l-1-190h30c1 10-1 24 2 32 11-22 29-35 61-36" id="ad"/><path fill="#333" d="M210-169c-67 3-38 105-44 169h-31v-121c0-29-5-50-35-48C34-165 62-65 56 0H25l-1-190h30c1 10-1 24 2 32 10-44 99-50 107 0 11-21 27-35 58-36 85-2 47 119 55 194h-31v-121c0-29-5-49-35-48" id="ae"/><g id="g"><use transform="matrix(0.05,0,0,0.05,0,0)" xlink:href="#ad"/><use transform="matrix(0.05,0,0,0.05,10,0)" xlink:href="#W"/><use transform="matrix(0.05,0,0,0.05,20,0)" xlink:href="#ae"/><use transform="matrix(0.05,0,0,0.05,34.95,0)" xlink:href="#J"/></g><path fill="#333" d="M30 0v-248h187v28H63v79h144v27H63v87h162V0H30" id="af"/><path fill="#333" d="M100-194c62-1 85 37 85 99 1 63-27 99-86 99S16-35 15-95c0-66 28-99 85-99zM99-20c44 1 53-31 53-75 0-43-8-75-51-75s-53 32-53 75 10 74 51 75" id="ag"/><path fill="#333" d="M24 0v-261h32V0H24" id="ah"/><g id="h"><use transform="matrix(0.05,0,0,0.05,0,0)" xlink:href="#af"/><use transform="matrix(0.05,0,0,0.05,12,0)" xlink:href="#ad"/><use transform="matrix(0.05,0,0,0.05,22,0)" xlink:href="#aa"/><use transform="matrix(0.05,0,0,0.05,27.950000000000003,0)" xlink:href="#ag"/><use transform="matrix(0.05,0,0,0.05,37.95,0)" xlink:href="#ah"/><use transform="matrix(0.05,0,0,0.05,41.900000000000006,0)" xlink:href="#ah"/><use transform="matrix(0.05,0,0,0.05,45.85000000000001,0)" xlink:href="#ae"/><use transform="matrix(0.05,0,0,0.05,60.80000000000001,0)" xlink:href="#J"/><use transform="matrix(0.05,0,0,0.05,70.80000000000001,0)" xlink:href="#ad"/><use transform="matrix(0.05,0,0,0.05,80.80000000000001,0)" xlink:href="#L"/></g><g id="i"><use transform="matrix(0.05,0,0,0.05,0,0)" xlink:href="#ab"/><use transform="matrix(0.05,0,0,0.05,3.95,0)" xlink:href="#ac"/><path fill="#333" d="M-.9 1.25h15.75v1.32H-.9z"/></g><g id="j"><use transform="matrix(0.05,0,0,0.05,0,0)" xlink:href="#J"/><use transform="matrix(0.05,0,0,0.05,10,0)" xlink:href="#ae"/><use transform="matrix(0.05,0,0,0.05,24.950000000000003,0)" xlink:href="#W"/><use transform="matrix(0.05,0,0,0.05,34.95,0)" xlink:href="#ab"/><use transform="matrix(0.05,0,0,0.05,38.900000000000006,0)" xlink:href="#ah"/></g><g id="k"><use transform="matrix(0.05,0,0,0.05,0,0)" xlink:href="#ae"/><use transform="matrix(0.05,0,0,0.05,14.950000000000001,0)" xlink:href="#J"/><use transform="matrix(0.05,0,0,0.05,24.950000000000003,0)" xlink:href="#L"/><use transform="matrix(0.05,0,0,0.05,29.950000000000003,0)" xlink:href="#W"/><use transform="matrix(0.05,0,0,0.05,39.95,0)" xlink:href="#ac"/><use transform="matrix(0.05,0,0,0.05,49.95,0)" xlink:href="#W"/><use transform="matrix(0.05,0,0,0.05,59.95,0)" xlink:href="#L"/><use transform="matrix(0.05,0,0,0.05,64.95,0)" xlink:href="#W"/></g><g id="l"><use transform="matrix(0.05,0,0,0.05,0,0)" xlink:href="#P"/><use transform="matrix(0.05,0,0,0.05,12.950000000000001,0)" xlink:href="#ag"/><use transform="matrix(0.05,0,0,0.05,22.950000000000003,0)" xlink:href="#R"/><use transform="matrix(0.05,0,0,0.05,32.95,0)" xlink:href="#aa"/><use transform="matrix(0.05,0,0,0.05,38.900000000000006,0)" xlink:href="#V"/><use transform="matrix(0.05,0,0,0.05,47.900000000000006,0)" xlink:href="#J"/></g><g id="m"><use transform="matrix(0.05,0,0,0.05,0,0)" xlink:href="#U"/><use transform="matrix(0.05,0,0,0.05,9,0)" xlink:href="#aa"/><use transform="matrix(0.05,0,0,0.05,14.949999999999998,0)" xlink:href="#J"/><use transform="matrix(0.05,0,0,0.05,24.95,0)" xlink:href="#ac"/><use transform="matrix(0.05,0,0,0.05,34.95,0)" xlink:href="#ab"/><use transform="matrix(0.05,0,0,0.05,38.900000000000006,0)" xlink:href="#L"/><use transform="matrix(0.05,0,0,0.05,43.900000000000006,0)" xlink:href="#V"/></g><g id="n"><use transform="matrix(0.05,0,0,0.05,0,0)" xlink:href="#V"/><use transform="matrix(0.05,0,0,0.05,9,0)" xlink:href="#L"/><use transform="matrix(0.05,0,0,0.05,14,0)" xlink:href="#R"/><use transform="matrix(0.05,0,0,0.05,24,0)" xlink:href="#ac"/><use transform="matrix(0.05,0,0,0.05,34,0)" xlink:href="#J"/><use transform="matrix(0.05,0,0,0.05,44,0)" xlink:href="#ad"/><use transform="matrix(0.05,0,0,0.05,54,0)" xlink:href="#L"/><use transform="matrix(0.05,0,0,0.05,59,0)" xlink:href="#Y"/><use transform="matrix(0.05,0,0,0.05,69,0)" xlink:href="#J"/><use transform="matrix(0.05,0,0,0.05,79,0)" xlink:href="#ad"/><use transform="matrix(0.05,0,0,0.05,89,0)" xlink:href="#aa"/><use transform="matrix(0.05,0,0,0.05,94.95,0)" xlink:href="#ag"/><use transform="matrix(0.05,0,0,0.05,104.95,0)" xlink:href="#ah"/><use transform="matrix(0.05,0,0,0.05,108.9,0)" xlink:href="#ah"/><use transform="matrix(0.05,0,0,0.05,112.85000000000001,0)" xlink:href="#J"/><use transform="matrix(0.05,0,0,0.05,122.85000000000001,0)" xlink:href="#ac"/></g><g id="o"><use transform="matrix(0.05,0,0,0.05,0,0)" xlink:href="#ab"/><use transform="matrix(0.05,0,0,0.05,3.95,0)" xlink:href="#ad"/><use transform="matrix(0.05,0,0,0.05,13.949999999999998,0)" xlink:href="#V"/><use transform="matrix(0.05,0,0,0.05,22.95,0)" xlink:href="#L"/><use transform="matrix(0.05,0,0,0.05,27.950000000000003,0)" xlink:href="#aa"/><use transform="matrix(0.05,0,0,0.05,33.9,0)" xlink:href="#R"/><use transform="matrix(0.05,0,0,0.05,43.9,0)" xlink:href="#U"/><use transform="matrix(0.05,0,0,0.05,52.900000000000006,0)" xlink:href="#L"/><use transform="matrix(0.05,0,0,0.05,57.900000000000006,0)" xlink:href="#ag"/><use transform="matrix(0.05,0,0,0.05,67.9,0)" xlink:href="#aa"/></g><path fill="#333" d="M108 0H70L1-190h34L89-25l56-165h34" id="ai"/><g id="p"><use transform="matrix(0.05,0,0,0.05,0,0)" xlink:href="#J"/><use transform="matrix(0.05,0,0,0.05,10,0)" xlink:href="#ai"/><use transform="matrix(0.05,0,0,0.05,19,0)" xlink:href="#W"/><use transform="matrix(0.05,0,0,0.05,29,0)" xlink:href="#ah"/><use transform="matrix(0.05,0,0,0.05,32.95,0)" xlink:href="#R"/><use transform="matrix(0.05,0,0,0.05,42.95,0)" xlink:href="#W"/><use transform="matrix(0.05,0,0,0.05,52.95,0)" xlink:href="#L"/><use transform="matrix(0.05,0,0,0.05,57.95,0)" xlink:href="#ab"/><use transform="matrix(0.05,0,0,0.05,61.900000000000006,0)" xlink:href="#ag"/><use transform="matrix(0.05,0,0,0.05,71.9,0)" xlink:href="#ad"/></g><g id="q"><use transform="matrix(0.05,0,0,0.05,0,0)" xlink:href="#U"/><use transform="matrix(0.05,0,0,0.05,9,0)" xlink:href="#ag"/><use transform="matrix(0.05,0,0,0.05,19,0)" xlink:href="#R"/><use transform="matrix(0.05,0,0,0.05,29,0)" xlink:href="#aa"/><use transform="matrix(0.05,0,0,0.05,34.95,0)" xlink:href="#V"/><use transform="matrix(0.05,0,0,0.05,43.95,0)" xlink:href="#J"/><use transform="matrix(0.05,0,0,0.05,53.95,0)" xlink:href="#Y"/><use transform="matrix(0.05,0,0,0.05,63.95,0)" xlink:href="#J"/><use transform="matrix(0.05,0,0,0.05,73.95,0)" xlink:href="#ad"/><use transform="matrix(0.05,0,0,0.05,83.95,0)" xlink:href="#aa"/><use transform="matrix(0.05,0,0,0.05,89.9,0)" xlink:href="#ag"/><use transform="matrix(0.05,0,0,0.05,99.9,0)" xlink:href="#ah"/><use transform="matrix(0.05,0,0,0.05,103.85000000000001,0)" xlink:href="#ah"/><use transform="matrix(0.05,0,0,0.05,107.80000000000001,0)" xlink:href="#J"/><use transform="matrix(0.05,0,0,0.05,117.80000000000001,0)" xlink:href="#J"/></g><path fill="#333" d="M205 0l-28-72H64L36 0H1l101-248h38L239 0h-34zm-38-99l-47-123c-12 45-31 82-46 123h93" id="aj"/><path fill="#333" d="M177-190C167-65 218 103 67 71c-23-6-38-20-44-43l32-5c15 47 100 32 89-28v-30C133-14 115 1 83 1 29 1 15-40 15-95c0-56 16-97 71-98 29-1 48 16 59 35 1-10 0-23 2-32h30zM94-22c36 0 50-32 50-73 0-42-14-75-50-75-39 0-46 34-46 75s6 73 46 73" id="ak"/><g id="r"><use transform="matrix(0.05,0,0,0.05,0,0)" xlink:href="#aj"/><use transform="matrix(0.05,0,0,0.05,12,0)" xlink:href="#V"/><use transform="matrix(0.05,0,0,0.05,21,0)" xlink:href="#V"/><use transform="matrix(0.05,0,0,0.05,30,0)" xlink:href="#ab"/><use transform="matrix(0.05,0,0,0.05,33.95,0)" xlink:href="#ak"/><use transform="matrix(0.05,0,0,0.05,43.95,0)" xlink:href="#ad"/><use transform="matrix(0.05,0,0,0.05,53.95,0)" xlink:href="#ae"/><use transform="matrix(0.05,0,0,0.05,68.9,0)" xlink:href="#J"/><use transform="matrix(0.05,0,0,0.05,78.9,0)" xlink:href="#ad"/><use transform="matrix(0.05,0,0,0.05,88.9,0)" xlink:href="#L"/></g><g id="s"><use transform="matrix(0.05,0,0,0.05,0,0)" xlink:href="#ab"/><use transform="matrix(0.05,0,0,0.05,3.95,0)" xlink:href="#ac"/><path fill="#333" d="M-.9 1.25h15.75v1.32H-.9z"/></g><g id="t"><use transform="matrix(0.05,0,0,0.05,0,0)" xlink:href="#ad"/><use transform="matrix(0.05,0,0,0.05,10,0)" xlink:href="#W"/><use transform="matrix(0.05,0,0,0.05,20,0)" xlink:href="#ae"/><use transform="matrix(0.05,0,0,0.05,34.95,0)" xlink:href="#J"/></g><g id="u"><use transform="matrix(0.05,0,0,0.05,0,0)" xlink:href="#ae"/><use transform="matrix(0.05,0,0,0.05,14.950000000000001,0)" xlink:href="#W"/><use transform="matrix(0.05,0,0,0.05,24.950000000000003,0)" xlink:href="#K"/><use transform="matrix(0.05,0,0,0.05,33.95,0)" xlink:href="#Y"/><use transform="matrix(0.05,0,0,0.05,43.95,0)" xlink:href="#V"/><use transform="matrix(0.05,0,0,0.05,52.95,0)" xlink:href="#U"/><use transform="matrix(0.05,0,0,0.05,61.95,0)" xlink:href="#ag"/><use transform="matrix(0.05,0,0,0.05,71.95,0)" xlink:href="#aa"/><use transform="matrix(0.05,0,0,0.05,77.9,0)" xlink:href="#J"/></g><path fill="#333" d="M266 0h-40l-56-210L115 0H75L2-248h35L96-30l15-64 43-154h32l59 218 59-218h35" id="al"/><g id="v"><use transform="matrix(0.05,0,0,0.05,0,0)" xlink:href="#al"/><use transform="matrix(0.05,0,0,0.05,16.599999999999998,0)" xlink:href="#J"/><use transform="matrix(0.05,0,0,0.05,26.599999999999994,0)" xlink:href="#ab"/><use transform="matrix(0.05,0,0,0.05,30.549999999999997,0)" xlink:href="#ak"/><use transform="matrix(0.05,0,0,0.05,40.55,0)" xlink:href="#X"/><use transform="matrix(0.05,0,0,0.05,50.55,0)" xlink:href="#L"/></g><path fill="#333" d="M206 0h-36l-40-164L89 0H53L-1-190h32L70-26l43-164h34l41 164 42-164h31" id="am"/><g id="w"><use transform="matrix(0.05,0,0,0.05,0,0)" xlink:href="#am"/><use transform="matrix(0.05,0,0,0.05,12.950000000000001,0)" xlink:href="#J"/><use transform="matrix(0.05,0,0,0.05,22.950000000000003,0)" xlink:href="#ab"/><use transform="matrix(0.05,0,0,0.05,26.900000000000002,0)" xlink:href="#ak"/><use transform="matrix(0.05,0,0,0.05,36.900000000000006,0)" xlink:href="#X"/><use transform="matrix(0.05,0,0,0.05,46.900000000000006,0)" xlink:href="#L"/></g><path fill="#333" d="M115-194c55 1 70 41 70 98S169 2 115 4C84 4 66-9 55-30l1 105H24l-1-265h31l2 30c10-21 28-34 59-34zm-8 174c40 0 45-34 45-75s-6-73-45-74c-42 0-51 32-51 76 0 43 10 73 51 73" id="an"/><g id="x"><use transform="matrix(0.05,0,0,0.05,0,0)" xlink:href="#J"/><use transform="matrix(0.05,0,0,0.05,10,0)" xlink:href="#K"/><use transform="matrix(0.05,0,0,0.05,19,0)" xlink:href="#an"/><use transform="matrix(0.05,0,0,0.05,29,0)" xlink:href="#J"/><use transform="matrix(0.05,0,0,0.05,39,0)" xlink:href="#U"/><use transform="matrix(0.05,0,0,0.05,48,0)" xlink:href="#L"/><use transform="matrix(0.05,0,0,0.05,53,0)" xlink:href="#J"/><use transform="matrix(0.05,0,0,0.05,63,0)" xlink:href="#ac"/><use transform="matrix(0.05,0,0,0.05,73,0)" xlink:href="#Y"/><use transform="matrix(0.05,0,0,0.05,83,0)" xlink:href="#ae"/><use transform="matrix(0.05,0,0,0.05,97.95,0)" xlink:href="#W"/><use transform="matrix(0.05,0,0,0.05,107.95,0)" xlink:href="#K"/><use transform="matrix(0.05,0,0,0.05,116.95,0)" xlink:href="#Y"/><use transform="matrix(0.05,0,0,0.05,126.95,0)" xlink:href="#V"/><use transform="matrix(0.05,0,0,0.05,135.95,0)" xlink:href="#U"/><use transform="matrix(0.05,0,0,0.05,144.95,0)" xlink:href="#ag"/><use transform="matrix(0.05,0,0,0.05,154.95,0)" xlink:href="#aa"/><use transform="matrix(0.05,0,0,0.05,160.89999999999998,0)" xlink:href="#J"/></g><g id="y"><use transform="matrix(0.05,0,0,0.05,0,0)" xlink:href="#ac"/><use transform="matrix(0.05,0,0,0.05,10,0)" xlink:href="#aa"/><use transform="matrix(0.05,0,0,0.05,15.949999999999998,0)" xlink:href="#ag"/><use transform="matrix(0.05,0,0,0.05,25.950000000000003,0)" xlink:href="#an"/><use transform="matrix(0.05,0,0,0.05,35.95,0)" xlink:href="#Y"/><use transform="matrix(0.05,0,0,0.05,45.95,0)" xlink:href="#ad"/></g><g id="z"><use transform="matrix(0.05,0,0,0.05,0,0)" xlink:href="#U"/><use transform="matrix(0.05,0,0,0.05,9,0)" xlink:href="#ag"/><use transform="matrix(0.05,0,0,0.05,19,0)" xlink:href="#R"/><use transform="matrix(0.05,0,0,0.05,29,0)" xlink:href="#aa"/><use transform="matrix(0.05,0,0,0.05,34.95,0)" xlink:href="#V"/><use transform="matrix(0.05,0,0,0.05,43.95,0)" xlink:href="#J"/><use transform="matrix(0.05,0,0,0.05,53.95,0)" xlink:href="#Y"/><use transform="matrix(0.05,0,0,0.05,63.95,0)" xlink:href="#am"/><use transform="matrix(0.05,0,0,0.05,76.9,0)" xlink:href="#J"/><use transform="matrix(0.05,0,0,0.05,86.9,0)" xlink:href="#ab"/><use transform="matrix(0.05,0,0,0.05,90.85000000000001,0)" xlink:href="#ak"/><use transform="matrix(0.05,0,0,0.05,100.85000000000001,0)" xlink:href="#X"/><use transform="matrix(0.05,0,0,0.05,110.85000000000001,0)" xlink:href="#L"/></g><path fill="#333" d="M179-190L93 31C79 59 56 82 12 73V49c39 6 53-20 64-50L1-190h34L92-34l54-156h33" id="ao"/><g id="A"><use transform="matrix(0.05,0,0,0.05,0,0)" xlink:href="#W"/><use transform="matrix(0.05,0,0,0.05,10,0)" xlink:href="#V"/><use transform="matrix(0.05,0,0,0.05,19,0)" xlink:href="#V"/><use transform="matrix(0.05,0,0,0.05,28,0)" xlink:href="#ab"/><use transform="matrix(0.05,0,0,0.05,31.950000000000003,0)" xlink:href="#ak"/><use transform="matrix(0.05,0,0,0.05,41.95,0)" xlink:href="#ad"/><use transform="matrix(0.05,0,0,0.05,51.95,0)" xlink:href="#ae"/><use transform="matrix(0.05,0,0,0.05,66.9,0)" xlink:href="#J"/><use transform="matrix(0.05,0,0,0.05,76.9,0)" xlink:href="#ad"/><use transform="matrix(0.05,0,0,0.05,86.9,0)" xlink:href="#L"/><use transform="matrix(0.05,0,0,0.05,91.9,0)" xlink:href="#Y"/><use transform="matrix(0.05,0,0,0.05,101.9,0)" xlink:href="#L"/><use transform="matrix(0.05,0,0,0.05,106.9,0)" xlink:href="#ao"/><use transform="matrix(0.05,0,0,0.05,115.9,0)" xlink:href="#an"/><use transform="matrix(0.05,0,0,0.05,125.9,0)" xlink:href="#J"/></g><g id="B"><use transform="matrix(0.05,0,0,0.05,0,0)" xlink:href="#V"/><use transform="matrix(0.05,0,0,0.05,9,0)" xlink:href="#U"/><use transform="matrix(0.05,0,0,0.05,18,0)" xlink:href="#ag"/><use transform="matrix(0.05,0,0,0.05,28,0)" xlink:href="#aa"/><use transform="matrix(0.05,0,0,0.05,33.95,0)" xlink:href="#J"/></g><g id="C"><use transform="matrix(0.05,0,0,0.05,0,0)" xlink:href="#J"/><use transform="matrix(0.05,0,0,0.05,10,0)" xlink:href="#ai"/><use transform="matrix(0.05,0,0,0.05,19,0)" xlink:href="#W"/><use transform="matrix(0.05,0,0,0.05,29,0)" xlink:href="#ah"/><use transform="matrix(0.05,0,0,0.05,32.95,0)" xlink:href="#R"/><use transform="matrix(0.05,0,0,0.05,42.95,0)" xlink:href="#W"/><use transform="matrix(0.05,0,0,0.05,52.95,0)" xlink:href="#L"/><use transform="matrix(0.05,0,0,0.05,57.95,0)" xlink:href="#J"/><use transform="matrix(0.05,0,0,0.05,67.95,0)" xlink:href="#ac"/></g><g id="D"><use transform="matrix(0.05,0,0,0.05,0,0)" xlink:href="#U"/><use transform="matrix(0.05,0,0,0.05,9,0)" xlink:href="#ag"/><use transform="matrix(0.05,0,0,0.05,19,0)" xlink:href="#R"/><use transform="matrix(0.05,0,0,0.05,29,0)" xlink:href="#aa"/><use transform="matrix(0.05,0,0,0.05,34.95,0)" xlink:href="#V"/><use transform="matrix(0.05,0,0,0.05,43.95,0)" xlink:href="#J"/><use transform="matrix(0.05,0,0,0.05,53.95,0)" xlink:href="#Y"/><use transform="matrix(0.05,0,0,0.05,63.95,0)" xlink:href="#ak"/><use transform="matrix(0.05,0,0,0.05,73.95,0)" xlink:href="#aa"/><use transform="matrix(0.05,0,0,0.05,79.9,0)" xlink:href="#W"/><use transform="matrix(0.05,0,0,0.05,89.9,0)" xlink:href="#ac"/><use transform="matrix(0.05,0,0,0.05,99.9,0)" xlink:href="#J"/><use transform="matrix(0.05,0,0,0.05,109.9,0)" xlink:href="#Y"/><use transform="matrix(0.05,0,0,0.05,119.9,0)" xlink:href="#V"/><use transform="matrix(0.05,0,0,0.05,128.9,0)" xlink:href="#U"/><use transform="matrix(0.05,0,0,0.05,137.9,0)" xlink:href="#W"/><use transform="matrix(0.05,0,0,0.05,147.9,0)" xlink:href="#ah"/><use transform="matrix(0.05,0,0,0.05,151.85,0)" xlink:href="#J"/></g><path fill="#333" d="M240 0l2-218c-23 76-54 145-80 218h-23L58-218 59 0H30v-248h44l77 211c21-75 51-140 76-211h43V0h-30" id="ap"/><path fill="#333" d="M143 0L79-87 56-68V0H24v-261h32v163l83-92h37l-77 82L181 0h-38" id="aq"/><g id="E"><use transform="matrix(0.05,0,0,0.05,0,0)" xlink:href="#Q"/><use transform="matrix(0.05,0,0,0.05,12,0)" xlink:href="#U"/><use transform="matrix(0.05,0,0,0.05,21,0)" xlink:href="#W"/><use transform="matrix(0.05,0,0,0.05,31,0)" xlink:href="#ah"/><use transform="matrix(0.05,0,0,0.05,34.95,0)" xlink:href="#J"/><use transform="matrix(0.05,0,0,0.05,44.95,0)" xlink:href="#ap"/><use transform="matrix(0.05,0,0,0.05,59.900000000000006,0)" xlink:href="#W"/><use transform="matrix(0.05,0,0,0.05,69.9,0)" xlink:href="#aa"/><use transform="matrix(0.05,0,0,0.05,75.85000000000001,0)" xlink:href="#aq"/></g><g id="F"><use transform="matrix(0.05,0,0,0.05,0,0)" xlink:href="#V"/><use transform="matrix(0.05,0,0,0.05,9,0)" xlink:href="#U"/><use transform="matrix(0.05,0,0,0.05,18,0)" xlink:href="#ag"/><use transform="matrix(0.05,0,0,0.05,28,0)" xlink:href="#aa"/><use transform="matrix(0.05,0,0,0.05,33.95,0)" xlink:href="#J"/></g><g id="G"><use transform="matrix(0.05,0,0,0.05,0,0)" xlink:href="#ae"/><use transform="matrix(0.05,0,0,0.05,14.950000000000001,0)" xlink:href="#W"/><use transform="matrix(0.05,0,0,0.05,24.950000000000003,0)" xlink:href="#aa"/><use transform="matrix(0.05,0,0,0.05,30.900000000000002,0)" xlink:href="#aq"/></g><g id="H"><use transform="matrix(0.05,0,0,0.05,0,0)" xlink:href="#ak"/><use transform="matrix(0.05,0,0,0.05,10,0)" xlink:href="#aa"/><use transform="matrix(0.05,0,0,0.05,15.949999999999998,0)" xlink:href="#W"/><use transform="matrix(0.05,0,0,0.05,25.950000000000003,0)" xlink:href="#ac"/><use transform="matrix(0.05,0,0,0.05,35.95,0)" xlink:href="#J"/><use transform="matrix(0.05,0,0,0.05,45.95,0)" xlink:href="#Y"/><use transform="matrix(0.05,0,0,0.05,55.95,0)" xlink:href="#an"/><use transform="matrix(0.05,0,0,0.05,65.95,0)" xlink:href="#ag"/><use transform="matrix(0.05,0,0,0.05,75.95,0)" xlink:href="#ab"/><use transform="matrix(0.05,0,0,0.05,79.9,0)" xlink:href="#ad"/><use transform="matrix(0.05,0,0,0.05,89.9,0)" xlink:href="#L"/></g></defs></g></svg>